<?xml version="1.0" encoding="UTF-8" standalone="no"?><svg xmlns="http://www.w3.org/2000/svg" xmlns:xlink="http://www.w3.org/1999/xlink" contentScriptType="application/ecmascript" contentStyleType="text/css" height="343px" preserveAspectRatio="none" style="width:223px;height:343px;" version="1.1" viewBox="0 0 223 343" width="223px" zoomAndPan="magnify"><defs><filter height="300%" id="ftei69s38sner" width="300%" x="-1" y="-1"><feGaussianBlur result="blurOut" stdDeviation="2.0"/><feColorMatrix in="blurOut" result="blurOut2" type="matrix" values="0 0 0 0 0 0 0 0 0 0 0 0 0 0 0 0 0 0 .4 0"/><feOffset dx="4.0" dy="4.0" in="blurOut2" result="blurOut3"/><feBlend in="SourceGraphic" in2="blurOut3" mode="normal"/></filter></defs><g><line style="stroke: #A80036; stroke-width: 1.0; stroke-dasharray: 5.0,5.0;" x1="33" x2="33" y1="86.2969" y2="256.2266"/><line style="stroke: #A80036; stroke-width: 1.0; stroke-dasharray: 5.0,5.0;" x1="93" x2="93" y1="86.2969" y2="256.2266"/><rect fill="#FEFECE" filter="url(#ftei69s38sner)" height="30.2969" style="stroke: #A80036; stroke-width: 1.5;" width="46" x="8" y="51"/><text fill="#000000" font-family="sans-serif" font-size="14" lengthAdjust="spacingAndGlyphs" textLength="32" x="15" y="70.9951">Alice</text><rect fill="#FEFECE" filter="url(#ftei69s38sner)" height="30.2969" style="stroke: #A80036; stroke-width: 1.5;" width="46" x="8" y="255.2266"/><text fill="#000000" font-family="sans-serif" font-size="14" lengthAdjust="spacingAndGlyphs" textLength="32" x="15" y="275.2217">Alice</text><text fill="#000000" font-family="sans-serif" font-size="14" lengthAdjust="spacingAndGlyphs" textLength="44" x="68" y="82.9951">Bobby</text><ellipse cx="93" cy="13" fill="#FEFECE" filter="url(#ftei69s38sner)" rx="8" ry="8" style="stroke: #A80036; stroke-width: 2.0;"/><path d="M93,21 L93,48 M80,29 L106,29 M93,48 L80,63 M93,48 L106,63 " fill="none" filter="url(#ftei69s38sner)" style="stroke: #A80036; stroke-width: 2.0;"/><text fill="#000000" font-family="sans-serif" font-size="14" lengthAdjust="spacingAndGlyphs" textLength="44" x="68" y="268.2217">Bobby</text><ellipse cx="93" cy="281.5234" fill="#FEFECE" filter="url(#ftei69s38sner)" rx="8" ry="8" style="stroke: #A80036; stroke-width: 2.0;"/><path d="M93,289.5234 L93,316.5234 M80,297.5234 L106,297.5234 M93,316.5234 L80,331.5234 M93,316.5234 L106,331.5234 " fill="none" filter="url(#ftei69s38sner)" style="stroke: #A80036; stroke-width: 2.0;"/><rect fill="#FFFFFF" filter="url(#ftei69s38sner)" height="40.2656" style="stroke: #000000; stroke-width: 2.0;" width="112" x="5" y="96.2969"/><polygon fill="#EEEEEE" points="5,96.2969,71,96.2969,71,103.2969,61,113.2969,5,113.2969,5,96.2969" style="stroke: #000000; stroke-width: 2.0;"/><text fill="#000000" font-family="sans-serif" font-size="13" font-weight="bold" lengthAdjust="spacingAndGlyphs" textLength="21" x="18" y="110.3638">ref</text><text fill="#000000" font-family="sans-serif" font-size="13" lengthAdjust="spacingAndGlyphs" textLength="19" x="53.5" y="129.3638">init</text><polygon fill="#A80036" points="81,158.6953,91,162.6953,81,166.6953,85,162.6953" style="stroke: #A80036; stroke-width: 1.0;"/><line style="stroke: #A80036; stroke-width: 1.0;" x1="33" x2="87" y1="162.6953" y2="162.6953"/><text fill="#000000" font-family="sans-serif" font-size="13" lengthAdjust="spacingAndGlyphs" textLength="30" x="40" y="157.6294">hello</text><rect fill="#FFFFFF" filter="url(#ftei69s38sner)" height="70.5313" style="stroke: #000000; stroke-width: 2.0;" width="147" x="65" y="170.6953"/><polygon fill="#EEEEEE" points="65,170.6953,131,170.6953,131,177.6953,121,187.6953,65,187.6953,65,170.6953" style="stroke: #000000; stroke-width: 2.0;"/><text fill="#000000" font-family="sans-serif" font-size="13" font-weight="bold" lengthAdjust="spacingAndGlyphs" textLength="21" x="78" y="184.7622">ref</text><text fill="#000000" font-family="sans-serif" font-size="13" lengthAdjust="spacingAndGlyphs" textLength="92" x="71" y="203.7622">This can be on</text><text fill="#000000" font-family="sans-serif" font-size="13" lengthAdjust="spacingAndGlyphs" textLength="79" x="71" y="218.895">several lines</text><text fill="#000000" font-family="sans-serif" font-size="13" lengthAdjust="spacingAndGlyphs" textLength="139" x="71" y="234.0278">WOHOO THIS WORKS!</text><!--MD5=[7f3ebb5ec604a49b266a96861ce609b5]
@startuml
participant Alice
actor Bobby

ref over Alice, Bobby : init

Alice -> Bobby : hello

ref over Bobby
  This can be on
  several lines
  WOHOO THIS WORKS!
end ref
@enduml

PlantUML version 1.2020.02(Sun Mar 01 10:22:07 GMT 2020)
(GPL source distribution)
Java Runtime: OpenJDK Runtime Environment
JVM: OpenJDK 64-Bit Server VM
Java Version: 11.0.9+11-Ubuntu-0ubuntu1
Operating System: Linux
Default Encoding: ANSI_X3.4-1968
Language: en
Country: US
--></g></svg>