<?xml version="1.0" encoding="UTF-8" standalone="no"?><svg xmlns="http://www.w3.org/2000/svg" xmlns:xlink="http://www.w3.org/1999/xlink" contentScriptType="application/ecmascript" contentStyleType="text/css" height="343px" preserveAspectRatio="none" style="width:272px;height:343px;" version="1.1" viewBox="0 0 272 343" width="272px" zoomAndPan="magnify"><defs><filter height="300%" id="f1q1mo4xeksg" width="300%" x="-1" y="-1"><feGaussianBlur result="blurOut" stdDeviation="2.0"/><feColorMatrix in="blurOut" result="blurOut2" type="matrix" values="0 0 0 0 0 0 0 0 0 0 0 0 0 0 0 0 0 0 .4 0"/><feOffset dx="4.0" dy="4.0" in="blurOut2" result="blurOut3"/><feBlend in="SourceGraphic" in2="blurOut3" mode="normal"/></filter></defs><g><line style="stroke: #A80036; stroke-width: 1.0; stroke-dasharray: 5.0,5.0;" x1="33" x2="33" y1="86.2969" y2="256.2266"/><line style="stroke: #A80036; stroke-width: 1.0; stroke-dasharray: 5.0,5.0;" x1="142" x2="142" y1="86.2969" y2="256.2266"/><rect fill="#FEFECE" filter="url(#f1q1mo4xeksg)" height="30.2969" style="stroke: #A80036; stroke-width: 1.5;" width="46" x="8" y="51"/><text fill="#000000" font-family="sans-serif" font-size="14" lengthAdjust="spacingAndGlyphs" textLength="32" x="15" y="70.9951">Alice</text><rect fill="#FEFECE" filter="url(#f1q1mo4xeksg)" height="30.2969" style="stroke: #A80036; stroke-width: 1.5;" width="46" x="8" y="255.2266"/><text fill="#000000" font-family="sans-serif" font-size="14" lengthAdjust="spacingAndGlyphs" textLength="32" x="15" y="275.2217">Alice</text><text fill="#000000" font-family="sans-serif" font-size="14" lengthAdjust="spacingAndGlyphs" textLength="44" x="117" y="82.9951">Bobby</text><ellipse cx="142" cy="13" fill="#FEFECE" filter="url(#f1q1mo4xeksg)" rx="8" ry="8" style="stroke: #A80036; stroke-width: 2.0;"/><path d="M142,21 L142,48 M129,29 L155,29 M142,48 L129,63 M142,48 L155,63 " fill="none" filter="url(#f1q1mo4xeksg)" style="stroke: #A80036; stroke-width: 2.0;"/><text fill="#000000" font-family="sans-serif" font-size="14" lengthAdjust="spacingAndGlyphs" textLength="44" x="117" y="268.2217">Bobby</text><ellipse cx="142" cy="281.5234" fill="#FEFECE" filter="url(#f1q1mo4xeksg)" rx="8" ry="8" style="stroke: #A80036; stroke-width: 2.0;"/><path d="M142,289.5234 L142,316.5234 M129,297.5234 L155,297.5234 M142,316.5234 L129,331.5234 M142,316.5234 L155,331.5234 " fill="none" filter="url(#f1q1mo4xeksg)" style="stroke: #A80036; stroke-width: 2.0;"/><rect fill="#FFFFFF" filter="url(#f1q1mo4xeksg)" height="40.2656" style="stroke: #000000; stroke-width: 2.0;" width="161" x="5" y="96.2969"/><polygon fill="#EEEEEE" points="5,96.2969,71,96.2969,71,103.2969,61,113.2969,5,113.2969,5,96.2969" style="stroke: #000000; stroke-width: 2.0;"/><text fill="#000000" font-family="sans-serif" font-size="13" font-weight="bold" lengthAdjust="spacingAndGlyphs" textLength="21" x="18" y="110.3638">ref</text><text fill="#000000" font-family="sans-serif" font-size="13" lengthAdjust="spacingAndGlyphs" textLength="143" x="16" y="129.3638">THIS IS ANOTHER ONE</text><polygon fill="#A80036" points="130,158.6953,140,162.6953,130,166.6953,134,162.6953" style="stroke: #A80036; stroke-width: 1.0;"/><line style="stroke: #A80036; stroke-width: 1.0;" x1="33" x2="136" y1="162.6953" y2="162.6953"/><text fill="#000000" font-family="sans-serif" font-size="13" lengthAdjust="spacingAndGlyphs" textLength="30" x="40" y="157.6294">hello</text><rect fill="#FFFFFF" filter="url(#f1q1mo4xeksg)" height="70.5313" style="stroke: #000000; stroke-width: 2.0;" width="147" x="114" y="170.6953"/><polygon fill="#EEEEEE" points="114,170.6953,180,170.6953,180,177.6953,170,187.6953,114,187.6953,114,170.6953" style="stroke: #000000; stroke-width: 2.0;"/><text fill="#000000" font-family="sans-serif" font-size="13" font-weight="bold" lengthAdjust="spacingAndGlyphs" textLength="21" x="127" y="184.7622">ref</text><text fill="#000000" font-family="sans-serif" font-size="13" lengthAdjust="spacingAndGlyphs" textLength="92" x="120" y="203.7622">This can be on</text><text fill="#000000" font-family="sans-serif" font-size="13" lengthAdjust="spacingAndGlyphs" textLength="79" x="120" y="218.895">several lines</text><text fill="#000000" font-family="sans-serif" font-size="13" lengthAdjust="spacingAndGlyphs" textLength="139" x="120" y="234.0278">WOHOO THIS WORKS!</text><!--MD5=[deeeb7fdb2e7622de195dd0a219bcedf]
@startuml
participant Alice
actor Bobby

ref over Alice, Bobby : THIS IS ANOTHER ONE

Alice -> Bobby : hello

ref over Bobby
  This can be on
  several lines
  WOHOO THIS WORKS!
end ref
@enduml

PlantUML version 1.2020.02(Sun Mar 01 10:22:07 GMT 2020)
(GPL source distribution)
Java Runtime: OpenJDK Runtime Environment
JVM: OpenJDK 64-Bit Server VM
Java Version: 11.0.9+11-Ubuntu-0ubuntu1
Operating System: Linux
Default Encoding: ANSI_X3.4-1968
Language: en
Country: US
--></g></svg>