<?xml version="1.0" encoding="UTF-8" standalone="no"?><svg xmlns="http://www.w3.org/2000/svg" xmlns:xlink="http://www.w3.org/1999/xlink" contentScriptType="application/ecmascript" contentStyleType="text/css" height="190px" preserveAspectRatio="none" style="width:71px;height:190px;" version="1.1" viewBox="0 0 71 190" width="71px" zoomAndPan="magnify"><defs><filter height="300%" id="f17pz95t2ms3lm" width="300%" x="-1" y="-1"><feGaussianBlur result="blurOut" stdDeviation="2.0"/><feColorMatrix in="blurOut" result="blurOut2" type="matrix" values="0 0 0 0 0 0 0 0 0 0 0 0 0 0 0 0 0 0 .4 0"/><feOffset dx="4.0" dy="4.0" in="blurOut2" result="blurOut3"/><feBlend in="SourceGraphic" in2="blurOut3" mode="normal"/></filter></defs><g><ellipse cx="35" cy="20" fill="#000000" filter="url(#f17pz95t2ms3lm)" rx="10" ry="10" style="stroke: none; stroke-width: 1.0;"/><rect fill="#FEFECE" filter="url(#f17pz95t2ms3lm)" height="33.9688" rx="12.5" ry="12.5" style="stroke: #A80036; stroke-width: 1.5;" width="50" x="10" y="50"/><text fill="#000000" font-family="sans-serif" font-size="12" lengthAdjust="spacingAndGlyphs" textLength="30" x="20" y="71.1387">start</text><rect fill="#FEFECE" filter="url(#f17pz95t2ms3lm)" height="33.9688" rx="12.5" ry="12.5" style="stroke: #A80036; stroke-width: 1.5;" width="48" x="11" y="103.9688"/><text fill="#000000" font-family="sans-serif" font-size="12" lengthAdjust="spacingAndGlyphs" textLength="28" x="21" y="125.1074">stop</text><ellipse cx="35" cy="168.9375" fill="#FFFFFF" filter="url(#f17pz95t2ms3lm)" rx="11" ry="11" style="stroke: #000000; stroke-width: 1.0;"/><ellipse cx="35" cy="168.9375" fill="#000000" rx="6" ry="6" style="stroke: #7F7F7F; stroke-width: 1.0;"/><line style="stroke: #A80036; stroke-width: 1.5;" x1="35" x2="35" y1="30" y2="50"/><polygon fill="#A80036" points="31,40,35,50,39,40,35,44" style="stroke: #A80036; stroke-width: 1.0;"/><line style="stroke: #A80036; stroke-width: 1.5;" x1="35" x2="35" y1="83.9688" y2="103.9688"/><polygon fill="#A80036" points="31,93.9688,35,103.9688,39,93.9688,35,97.9688" style="stroke: #A80036; stroke-width: 1.0;"/><line style="stroke: #A80036; stroke-width: 1.5;" x1="35" x2="35" y1="137.9375" y2="157.9375"/><polygon fill="#A80036" points="31,147.9375,35,157.9375,39,147.9375,35,151.9375" style="stroke: #A80036; stroke-width: 1.0;"/><!--MD5=[ea1fefc06f2973f83b9a7c5578cc25d4]
@startuml some-diagram

start
:start;
:stop;
stop

@enduml

PlantUML version 1.2020.02(Sun Mar 01 10:22:07 GMT 2020)
(GPL source distribution)
Java Runtime: OpenJDK Runtime Environment
JVM: OpenJDK 64-Bit Server VM
Java Version: 11.0.9+11-Ubuntu-0ubuntu1
Operating System: Linux
Default Encoding: ANSI_X3.4-1968
Language: en
Country: US
--></g></svg>