<?xml version="1.0" encoding="UTF-8" standalone="no"?><svg xmlns="http://www.w3.org/2000/svg" xmlns:xlink="http://www.w3.org/1999/xlink" contentScriptType="application/ecmascript" contentStyleType="text/css" height="369px" preserveAspectRatio="none" style="width:401px;height:369px;" version="1.1" viewBox="0 0 401 369" width="401px" zoomAndPan="magnify"><defs><filter height="300%" id="f1o6m882q8nj6j" width="300%" x="-1" y="-1"><feGaussianBlur result="blurOut" stdDeviation="2.0"/><feColorMatrix in="blurOut" result="blurOut2" type="matrix" values="0 0 0 0 0 0 0 0 0 0 0 0 0 0 0 0 0 0 .4 0"/><feOffset dx="4.0" dy="4.0" in="blurOut2" result="blurOut3"/><feBlend in="SourceGraphic" in2="blurOut3" mode="normal"/></filter></defs><g><ellipse cx="141.5" cy="18" fill="#000000" filter="url(#f1o6m882q8nj6j)" rx="10" ry="10" style="stroke: none; stroke-width: 1.0;"/><rect fill="#FEFECE" filter="url(#f1o6m882q8nj6j)" height="40" rx="12.5" ry="12.5" style="stroke: #A80036; stroke-width: 1.5;" width="271" x="6" y="120"/><text fill="#000000" font-family="sans-serif" font-size="14" lengthAdjust="spacingAndGlyphs" textLength="261" x="11" y="144.8467">PENDING_COMPLIANCE_VERIFICATION</text><rect fill="#FEFECE" filter="url(#f1o6m882q8nj6j)" height="40" rx="12.5" ry="12.5" style="stroke: #A80036; stroke-width: 1.5;" width="103" x="21" y="237"/><text fill="#000000" font-family="sans-serif" font-size="14" lengthAdjust="spacingAndGlyphs" textLength="93" x="26" y="261.8467">BLACKLISTED</text><rect fill="#FEFECE" filter="url(#f1o6m882q8nj6j)" height="40" rx="12.5" ry="12.5" style="stroke: #A80036; stroke-width: 1.5;" width="102" x="175.5" y="237"/><text fill="#000000" font-family="sans-serif" font-size="14" lengthAdjust="spacingAndGlyphs" textLength="92" x="180.5" y="261.8467">WHITELISTED</text><ellipse cx="140.5" cy="348" fill="none" filter="url(#f1o6m882q8nj6j)" rx="10" ry="10" style="stroke: #000000; stroke-width: 1.0;"/><ellipse cx="141" cy="348.5" fill="#000000" rx="6" ry="6" style="stroke: none; stroke-width: 1.0;"/><!--MD5=[02a3d0cb76c1c92429ad15ce302ad5e6]
link *start to PENDING_COMPLIANCE_VERIFICATION--><path d="M141.5,28.02 C141.5,46.21 141.5,87.84 141.5,114.63 " fill="none" id="*start-&gt;PENDING_COMPLIANCE_VERIFICATION" style="stroke: #A80036; stroke-width: 1.0;"/><polygon fill="#A80036" points="141.5,119.77,145.5,110.77,141.5,114.77,137.5,110.77,141.5,119.77" style="stroke: #A80036; stroke-width: 1.0;"/><text fill="#000000" font-family="sans-serif" font-size="13" lengthAdjust="spacingAndGlyphs" textLength="149" x="175.5" y="71.0669">creates a new record &amp;</text><text fill="#000000" font-family="sans-serif" font-size="13" lengthAdjust="spacingAndGlyphs" textLength="215" x="142.5" y="86.1997">waiting for compliance verification</text><!--MD5=[4c11916958c1fd92e97bf1cd875e1fcb]
link PENDING_COMPLIANCE_VERIFICATION to BLACKLISTED--><path d="M72.68,160.06 C58.75,167.17 45.84,176.85 37.5,190 C28.75,203.8 37.08,220 47.81,232.89 " fill="none" id="PENDING_COMPLIANCE_VERIFICATION-&gt;BLACKLISTED" style="stroke: #A80036; stroke-width: 1.0;"/><polygon fill="#A80036" points="51.2,236.78,48.2863,227.372,47.9085,233.0162,42.2643,232.6384,51.2,236.78" style="stroke: #A80036; stroke-width: 1.0;"/><text fill="#000000" font-family="sans-serif" font-size="13" lengthAdjust="spacingAndGlyphs" textLength="160" x="38.5" y="203.0669">Compliance team rejects</text><!--MD5=[514562dc3284e6bbebbf14003d7b959c]
link PENDING_COMPLIANCE_VERIFICATION to WHITELISTED--><path d="M172.36,160.02 C183.44,168.11 195.23,178.38 203.5,190 C212.32,202.39 218.02,218.47 221.54,231.66 " fill="none" id="PENDING_COMPLIANCE_VERIFICATION-&gt;WHITELISTED" style="stroke: #A80036; stroke-width: 1.0;"/><polygon fill="#A80036" points="222.82,236.74,224.4841,227.0327,221.5905,231.8935,216.7297,228.9999,222.82,236.74" style="stroke: #A80036; stroke-width: 1.0;"/><text fill="#000000" font-family="sans-serif" font-size="13" lengthAdjust="spacingAndGlyphs" textLength="176" x="213.5" y="203.0669">Compliance team approves</text><!--MD5=[5c599be354dac1e70201575e7713ca5e]
link WHITELISTED to *end--><path d="M207.84,277.31 C190.32,295.44 164.76,321.89 150.71,336.44 " fill="none" id="WHITELISTED-&gt;*end" style="stroke: #A80036; stroke-width: 1.0;"/><polygon fill="#A80036" points="147.06,340.21,156.1866,336.5079,150.5307,336.6108,150.4278,330.9549,147.06,340.21" style="stroke: #A80036; stroke-width: 1.0;"/><!--MD5=[aa2fe36f68edb4095f7a098e16d123fd]
link BLACKLISTED to *end--><path d="M87.25,277.31 C100.71,294.92 120.15,320.37 131.44,335.14 " fill="none" id="BLACKLISTED-&gt;*end" style="stroke: #A80036; stroke-width: 1.0;"/><polygon fill="#A80036" points="134.67,339.37,132.3714,329.7931,131.629,335.401,126.0211,334.6587,134.67,339.37" style="stroke: #A80036; stroke-width: 1.0;"/><!--MD5=[a9d6eafbff56e6f250aba19fd74cd23a]
@startuml
hide empty description

[*] - -> PENDING_COMPLIANCE_VERIFICATION: creates a new record &\nwaiting for compliance verification
PENDING_COMPLIANCE_VERIFICATION - -> BLACKLISTED: Compliance team rejects
PENDING_COMPLIANCE_VERIFICATION - -> WHITELISTED: Compliance team approves

WHITELISTED - -> [*]
BLACKLISTED - -> [*]
@enduml

PlantUML version 1.2020.02(Sun Mar 01 10:22:07 GMT 2020)
(GPL source distribution)
Java Runtime: OpenJDK Runtime Environment
JVM: OpenJDK 64-Bit Server VM
Java Version: 11.0.9+11-Ubuntu-0ubuntu1
Operating System: Linux
Default Encoding: ANSI_X3.4-1968
Language: en
Country: US
--></g></svg>